# xmcd
#
# Track frame offsets:
#	150
#	17416
#	31700
#	47037
#	61980
#	78135
#	94044
#	110871
#	128418
#	145338
#	160101
#	179049
#	193960
#	210544
#	225399
#	245984
#	260336
#	278137
#	291939
#	308543
#
# Disc length: 4372 seconds
#
# Revision: 2
# Processed by: cddbd v1.5.2PL0 Copyright (c) Steve Scherf et al.
# Submitted via: audiograbber 1.83.01
#
DISCID=16111214
DTITLE=Various Artist - Sing Your Heart Out! 2018 [Disc 2]
DYEAR=2018
DGENRE=Pop
TTITLE0=The Weeknd, Daft Punk - I Feel It Coming
TTITLE1=Justin Bieber, BloodPop® - Friends
TTITLE2=Calum Scott - You Are The Reason
TTITLE3=Selena Gomez, Marshmello - Wolves
TTITLE4=Vance Joy - Lay It On Me
TTITLE5=Zedd, Alessia Cara - Stay
TTITLE6=Cheryl Cole - Fighting For This Love
TTITLE7=Sigrid - Strangers
TTITLE8=Milky Chance - Cocoon
TTITLE9=The Vamps, Matoma - All Night
TTITLE10=Logic, Alessia Cara, Khalid - 1-800-273-8255
TTITLE11=Tove Lo - Cool Girl
TTITLE12=Jennifer Lopez - On The Floor
TTITLE13=Mike Posner - I Took A Pill In Ibiza (SeeB Remix)
TTITLE14=Angus and Julia Stone - Chateau
TTITLE15=Lorde - Royals
TTITLE16=Ne-Yo - Closer
TTITLE17=Pixie Lott - Boys And Girls
TTITLE18=JP Cooper - September Song
TTITLE19=Robbie Williams - Rock DJ
EXTD=
EXTT0=
EXTT1=
EXTT2=
EXTT3=
EXTT4=
EXTT5=
EXTT6=
EXTT7=
EXTT8=
EXTT9=
EXTT10=
EXTT11=
EXTT12=
EXTT13=
EXTT14=
EXTT15=
EXTT16=
EXTT17=
EXTT18=
EXTT19=
PLAYORDER=
